HIERARCHY
ROOT Hips
{
  OFFSET -590.375 93.0139 1180.6
  CHANNELS 6 Xposition Yposition Zposition Zrotation Xrotation Yrotation
  JOINT Spine
  {
    OFFSET 1.11412e-05 8 -1.73661e-05
    CHANNELS 6 Xposition Yposition Zposition Zrotation Xrotation Yrotation
    JOINT Spine1
    {
      OFFSET -0.000266898 8.00001 0.00018545
      CHANNELS 6 Xposition Yposition Zposition Zrotation Xrotation Yrotation
      JOINT Spine2
      {
        OFFSET -3.28533e-05 8 3.82167e-05
        CHANNELS 6 Xposition Yposition Zposition Zrotation Xrotation Yrotation
        JOINT Spine3
        {
          OFFSET 0 8 0
          CHANNELS 6 Xposition Yposition Zposition Zrotation Xrotation Yrotation
          JOINT Neck
          {
            OFFSET 0.000121366 17.0003 -2.50741e-05
            CHANNELS 6 Xposition Yposition Zposition Zrotation Xrotation Yrotation
            JOINT Head
            {
              OFFSET -1.76495e-05 10.7998 2.45072e-05
              CHANNELS 6 Xposition Yposition Zposition Zrotation Xrotation Yrotation
              End Site
              {
                OFFSET 0 20.25 0
              }
            }
          }
          JOINT LeftShoulder
          {
            OFFSET 5.00008 17 0
            CHANNELS 6 Xposition Yposition Zposition Zrotation Xrotation Yrotation
            JOINT LeftShoulder2
            {
              OFFSET 6.45 0 0
              CHANNELS 6 Xposition Yposition Zposition Zrotation Xrotation Yrotation
              JOINT LeftArm
              {
                OFFSET 6.45002 2.75874e-05 -0.00020797
                CHANNELS 6 Xposition Yposition Zposition Zrotation Xrotation Yrotation
                JOINT LeftForeArm
                {
                  OFFSET 5.84248e-05 -32.4 -2.00004
                  CHANNELS 6 Xposition Yposition Zposition Zrotation Xrotation Yrotation
                  JOINT LeftHand
                  {
                    OFFSET -6.31095e-05 -25.65 1.99995
                    CHANNELS 6 Xposition Yposition Zposition Zrotation Xrotation Yrotation
                    JOINT LeftHandThumb1
                    {
                      OFFSET -0.499994 -1.50004 2.64999
                      CHANNELS 6 Xposition Yposition Zposition Zrotation Xrotation Yrotation
                      JOINT LeftHandThumb2
                      {
                        OFFSET 5.93171e-05 -3.80001 3.70006
                        CHANNELS 6 Xposition Yposition Zposition Zrotation Xrotation Yrotation
                        JOINT LeftHandThumb3
                        {
                          OFFSET -0.00355914 -3.00206 2.70001
                          CHANNELS 6 Xposition Yposition Zposition Zrotation Xrotation Yrotation
                          End Site
                          {
                            OFFSET -0.00120269 -2.29949 1.79949
                          }
                        }
                      }
                    }
                    JOINT LeftHandIndex
                    {
                      OFFSET 0.000157375 -1.90004 1.60006
                      CHANNELS 6 Xposition Yposition Zposition Zrotation Xrotation Yrotation
                      JOINT LeftHandIndex1
                      {
                        OFFSET 0.000426433 -8.29993 1.89996
                        CHANNELS 6 Xposition Yposition Zposition Zrotation Xrotation Yrotation
                        JOINT LeftHandIndex2
                        {
                          OFFSET 0.00140324 -4.50236 -0.00141626
                          CHANNELS 6 Xposition Yposition Zposition Zrotation Xrotation Yrotation
                          JOINT LeftHandIndex3
                          {
                            OFFSET -1.54957e-05 -3.3999 0.000507497
                            CHANNELS 6 Xposition Yposition Zposition Zrotation Xrotation Yrotation
                            End Site
                            {
                              OFFSET 0.000302126 -2.60043 -0.000505661
                            }
                          }
                        }
                      }
                    }
                    JOINT LeftHandMiddle
                    {
                      OFFSET -0.250571 -2.20006 0.4002
                      CHANNELS 6 Xposition Yposition Zposition Zrotation Xrotation Yrotation
                      JOINT LeftHandMiddle1
                      {
                        OFFSET 0.00034085 -8.3006 0.999003
                        CHANNELS 6 Xposition Yposition Zposition Zrotation Xrotation Yrotation
                        JOINT LeftHandMiddle2
                        {
                          OFFSET 0.000195878 -4.64982 0
                          CHANNELS 6 Xposition Yposition Zposition Zrotation Xrotation Yrotation
                          JOINT LeftHandMiddle3
                          {
                            OFFSET -1.99183e-05 -3.30016 0.000122645
                            CHANNELS 6 Xposition Yposition Zposition Zrotation Xrotation Yrotation
                            End Site
                            {
                              OFFSET -0.00126988 -2.69967 -0.000872085
                            }
                          }
                        }
                      }
                    }
                    JOINT LeftHandRing
                    {
                      OFFSET -0.500733 -2.15017 -0.799934
                      CHANNELS 6 Xposition Yposition Zposition Zrotation Xrotation Yrotation
                      JOINT LeftHandRing1
                      {
                        OFFSET -0.000202282 -7.74866 -0.197439
                        CHANNELS 6 Xposition Yposition Zposition Zrotation Xrotation Yrotation
                        JOINT LeftHandRing2
                        {
                          OFFSET -4.51133e-05 -3.80009 -0.00013026
                          CHANNELS 6 Xposition Yposition Zposition Zrotation Xrotation Yrotation
                          JOINT LeftHandRing3
                          {
                            OFFSET 0.000634945 -3.39992 -0.000449448
                            CHANNELS 6 Xposition Yposition Zposition Zrotation Xrotation Yrotation
                            End Site
                            {
                              OFFSET -0.000378489 -2.59986 -0.00022173
                            }
                          }
                        }
                      }
                    }
                    JOINT LeftHandPinky
                    {
                      OFFSET -0.749972 -1.75011 -1.84992
                      CHANNELS 6 Xposition Yposition Zposition Zrotation Xrotation Yrotation
                      JOINT LeftHandPinky1
                      {
                        OFFSET 0.000796538 -7.14975 -1.00007
                        CHANNELS 6 Xposition Yposition Zposition Zrotation Xrotation Yrotation
                        JOINT LeftHandPinky2
                        {
                          OFFSET 9.76363e-05 -3.00029 4.70854e-05
                          CHANNELS 6 Xposition Yposition Zposition Zrotation Xrotation Yrotation
                          JOINT LeftHandPinky3
                          {
                            OFFSET 0.000413418 -2.34971 -0.000309185
                            CHANNELS 6 Xposition Yposition Zposition Zrotation Xrotation Yrotation
                            End Site
                            {
                              OFFSET -0.000286055 -2.1003 -0.00042323
                            }
                          }
                        }
                      }
                    }
                  }
                }
              }
            }
          }
          JOINT RightShoulder
          {
            OFFSET -4.99986 17 0.000194426
            CHANNELS 6 Xposition Yposition Zposition Zrotation Xrotation Yrotation
            JOINT RightShoulder2
            {
              OFFSET -6.45 0 0
              CHANNELS 6 Xposition Yposition Zposition Zrotation Xrotation Yrotation
              JOINT RightArm
              {
                OFFSET -6.45009 -0.000160971 0.000141526
                CHANNELS 6 Xposition Yposition Zposition Zrotation Xrotation Yrotation
                JOINT RightForeArm
                {
                  OFFSET -0.000359085 -32.4005 -1.99991
                  CHANNELS 6 Xposition Yposition Zposition Zrotation Xrotation Yrotation
                  JOINT RightHand
                  {
                    OFFSET 8.20027e-05 -25.65 1.99987
                    CHANNELS 6 Xposition Yposition Zposition Zrotation Xrotation Yrotation
                    JOINT RightHandThumb1
                    {
                      OFFSET 0.498953 -1.49993 2.64992
                      CHANNELS 6 Xposition Yposition Zposition Zrotation Xrotation Yrotation
                      JOINT RightHandThumb2
                      {
                        OFFSET 0.000651995 -3.79962 3.69907
                        CHANNELS 6 Xposition Yposition Zposition Zrotation Xrotation Yrotation
                        JOINT RightHandThumb3
                        {
                          OFFSET 0.000141163 -3 2.70004
                          CHANNELS 6 Xposition Yposition Zposition Zrotation Xrotation Yrotation
                          End Site
                          {
                            OFFSET 8.70316e-05 -2.29989 1.80001
                          }
                        }
                      }
                    }
                    JOINT RightHandIndex
                    {
                      OFFSET -0.00080358 -1.89956 1.60034
                      CHANNELS 6 Xposition Yposition Zposition Zrotation Xrotation Yrotation
                      JOINT RightHandIndex1
                      {
                        OFFSET 0.00100652 -8.30052 1.8995
                        CHANNELS 6 Xposition Yposition Zposition Zrotation Xrotation Yrotation
                        JOINT RightHandIndex2
                        {
                          OFFSET -0.000106816 -4.49979 0.000107487
                          CHANNELS 6 Xposition Yposition Zposition Zrotation Xrotation Yrotation
                          JOINT RightHandIndex3
                          {
                            OFFSET 2.51101e-05 -3.39955 -0.00106309
                            CHANNELS 6 Xposition Yposition Zposition Zrotation Xrotation Yrotation
                            End Site
                            {
                              OFFSET -6.20588e-05 -2.60007 -6.76711e-05
                            }
                          }
                        }
                      }
                    }
                    JOINT RightHandMiddle
                    {
                      OFFSET 0.250097 -2.20012 0.400174
                      CHANNELS 6 Xposition Yposition Zposition Zrotation Xrotation Yrotation
                      JOINT RightHandMiddle1
                      {
                        OFFSET 0.00152996 -8.29915 1.00055
                        CHANNELS 6 Xposition Yposition Zposition Zrotation Xrotation Yrotation
                        JOINT RightHandMiddle2
                        {
                          OFFSET -0.00338356 -4.64657 0.00186367
                          CHANNELS 6 Xposition Yposition Zposition Zrotation Xrotation Yrotation
                          JOINT RightHandMiddle3
                          {
                            OFFSET 0.000513063 -3.30012 0.000198028
                            CHANNELS 6 Xposition Yposition Zposition Zrotation Xrotation Yrotation
                            End Site
                            {
                              OFFSET -9.88314e-05 -2.70016 4.79444e-05
                            }
                          }
                        }
                      }
                    }
                    JOINT RightHandRing
                    {
                      OFFSET 0.50013 -2.15093 -0.798612
                      CHANNELS 6 Xposition Yposition Zposition Zrotation Xrotation Yrotation
                      JOINT RightHandRing1
                      {
                        OFFSET -0.000804441 -7.74947 -0.199557
                        CHANNELS 6 Xposition Yposition Zposition Zrotation Xrotation Yrotation
                        JOINT RightHandRing2
                        {
                          OFFSET 4.34525e-05 -3.7997 -0.000356058
                          CHANNELS 6 Xposition Yposition Zposition Zrotation Xrotation Yrotation
                          JOINT RightHandRing3
                          {
                            OFFSET -0.000176322 -3.39984 5.34209e-05
                            CHANNELS 6 Xposition Yposition Zposition Zrotation Xrotation Yrotation
                            End Site
                            {
                              OFFSET -0.00146252 -2.59941 -0.000382528
                            }
                          }
                        }
                      }
                    }
                    JOINT RightHandPinky
                    {
                      OFFSET 0.749931 -1.75 -1.85008
                      CHANNELS 6 Xposition Yposition Zposition Zrotation Xrotation Yrotation
                      JOINT RightHandPinky1
                      {
                        OFFSET 0.00150871 -7.15102 -1.00086
                        CHANNELS 6 Xposition Yposition Zposition Zrotation Xrotation Yrotation
                        JOINT RightHandPinky2
                        {
                          OFFSET -0.00292985 -2.99988 -1.30323e-05
                          CHANNELS 6 Xposition Yposition Zposition Zrotation Xrotation Yrotation
                          JOINT RightHandPinky3
                          {
                            OFFSET 0.00177218 -2.35124 1.04943e-05
                            CHANNELS 6 Xposition Yposition Zposition Zrotation Xrotation Yrotation
                            End Site
                            {
                              OFFSET 0.000696192 -2.09972 0.000574512
                            }
                          }
                        }
                      }
                    }
                  }
                }
              }
            }
          }
        }
      }
    }
  }
  JOINT LeftUpLeg
  {
    OFFSET 8.00002 0 2.12352e-05
    CHANNELS 6 Xposition Yposition Zposition Zrotation Xrotation Yrotation
    JOINT LeftLeg
    {
      OFFSET 0.000242279 -45.0001 -0.999829
      CHANNELS 6 Xposition Yposition Zposition Zrotation Xrotation Yrotation
      JOINT LeftFoot
      {
        OFFSET -5.33838e-05 -41 -1.99997
        CHANNELS 6 Xposition Yposition Zposition Zrotation Xrotation Yrotation
        JOINT LeftToeBase
        {
          OFFSET 0.000748079 -7.5 12.4983
          CHANNELS 6 Xposition Yposition Zposition Zrotation Xrotation Yrotation
          JOINT LeftFootToe
          {
            OFFSET 0 0 4
            CHANNELS 6 Xposition Yposition Zposition Zrotation Xrotation Yrotation
            End Site
            {
              OFFSET 0 0 0
            }
          }
        }
      }
    }
  }
  JOINT RightUpLeg
  {
    OFFSET -8.00002 0 -2.12352e-05
    CHANNELS 6 Xposition Yposition Zposition Zrotation Xrotation Yrotation
    JOINT RightLeg
    {
      OFFSET -0.000254447 -45.0001 -0.99994
      CHANNELS 6 Xposition Yposition Zposition Zrotation Xrotation Yrotation
      JOINT RightFoot
      {
        OFFSET -8.05615e-05 -41 -2.00012
        CHANNELS 6 Xposition Yposition Zposition Zrotation Xrotation Yrotation
        JOINT RightToeBase
        {
          OFFSET 0.00022873 -7.50002 12.5
          CHANNELS 6 Xposition Yposition Zposition Zrotation Xrotation Yrotation
          JOINT RightFootToe
          {
            OFFSET 0 0 4
            CHANNELS 6 Xposition Yposition Zposition Zrotation Xrotation Yrotation
            End Site
            {
              OFFSET 0 0 0
            }
          }
        }
      }
    }
  }
}
MOTION
Frames:	3
Frame Time:	0.0111111
-569.177 91.1968 1172.42 2.42936 5.45964 -115.819 -2.27374e-13 8 5.68434e-14 10.3847 6.08356 10.2216 0 8 -1.13687e-13 2.46962 5.92502 2.54739 -2.27374e-13 8 0 1.26632 2.94908 1.32136 2.27374e-13 8 -1.13687e-13 1.2655 2.94614 1.31441 2.27374e-13 17 0 -2.76195 3.5873 9.01936 0 10.8 -1.13687e-13 -7.33822 7.61554 21.5024 5 17 0 1.8469 -4.01283 2.05668 6.45 -2.84217e-14 -5.68434e-14 -1.21423 -1.18316 -3.31757 6.45 -8.52651e-14 -5.68434e-14 82.2518 -48.4201 74.3414 1.13687e-13 -32.4 -2 -31.9693 7.10221 -1.33753 0 -25.65 2 -5.20121 25.7325 -26.9009 -0.5 -1.5 2.65 14.8205 -29.238 34.5236 0 -3.8 3.7 3.25762 20.6902 1.49146 2.27374e-13 -3 2.7 -0.00226195 16.0017 -0.0176589 0 -1.9 1.6 -4.86371e-06 -3.90579e-06 -3.67276e-06 0 -8.3 1.9 -6.75574 18.6933 1.42173 0 -4.5 5.68434e-14 -0.0895735 -0.241087 -0.59431 -2.27374e-13 -3.4 5.68434e-14 0.00708861 -0.227877 -0.31229 -0.25 -2.2 0.4 -4.86371e-06 -3.90579e-06 -3.67276e-06 0 -8.3 1 -21.63 30.1674 7.53356 -2.27374e-13 -4.65 1.13687e-13 -1.38229 68.3869 -66.9119 0 -3.3 0 -90.0001 -2.0801e-05 1.72575e-05 -0.5 -2.15 -0.8 -4.86371e-06 -3.90579e-06 -3.67276e-06 -2.27374e-13 -7.75 -0.2 -4.4146 16.8348 1.11071 0 -3.8 0 -38.8 65.8523 -30.7576 2.27374e-13 -3.4 -2.27374e-13 -77.8233 -0.0793866 -0.43434 -0.75 -1.75 -1.85 -4.86371e-06 -3.90579e-06 -3.67276e-06 0 -7.15 -1 -11.5546 19.2368 2.8877 2.27374e-13 -3 5.68434e-14 -60.3113 41.7161 -5.40826 0 -2.35 0 -58.4199 -0.0594337 -0.0547565 -5 17 -5.68434e-14 1.18562 -6.51145 3.59865 -6.45 -2.84217e-14 5.68434e-14 -1.83435 1.00737 -4.67215 -6.45 2.84217e-14 5.68434e-14 17.4292 -46.1204 48.505 0 -32.4 -2 9.65137 -52.6162 -2.75447 -2.27374e-13 -25.65 2 -37.7667 13.1924 35.4824 0.5 -1.5 2.65 -23.4186 71.9364 -156.981 1.13687e-13 -3.8 3.7 -0.810655 7.0398 -0.834223 0 -3 2.7 0.000647179 14.2341 -0.081131 -1.13687e-13 -1.9 1.6 2.64546e-07 3.97717e-06 -3.95282e-06 0 -8.3 1.9 2.30306 -2.36306 0.0351985 -2.27374e-13 -4.5 0 0.0922358 -0.0292188 -8.89921e-05 -3.41061e-13 -3.4 0 -2.68588e-05 -0.288856 -6.76969e-05 0.25 -2.2 0.4 2.64546e-07 3.97717e-06 -3.95282e-06 0 -8.3 1 2.30215 12.2866 -0.414453 0 -4.65 2.27374e-13 53.359 0.015304 -0.018823 -1.13687e-13 -3.3 -1.13687e-13 36.8484 -0.00682338 -0.0117068 0.5 -2.15 -0.8 2.64546e-07 3.97717e-06 -3.95282e-06 1.13687e-13 -7.75 -0.2 20.7986 14.6946 -3.42006 0 -3.8 -1.13687e-13 49.4472 0.0301084 -0.0140553 -1.13687e-13 -3.4 0 34.13 -0.0017567 -0.00144652 0.75 -1.75 -1.85 2.64546e-07 3.97717e-06 -3.95282e-06 -2.27374e-13 -7.15 -1 35.6983 10.3322 -5.06419 -2.27374e-13 -3 2.27374e-13 29.5337 0.00815784 -0.0333537 1.13687e-13 -2.35 0 21.8098 0.00105413 -0.0293899 8 0 -5.68434e-14 18.3546 -26.7691 14.666 -2.27374e-13 -45 -1 -4.25261 2.09867 -6.98834 4.54747e-13 -41 -2 -4.25849 15.269 -27.5452 0 -7.5 12.5 1.03363e-06 3.215e-06 -5.04759e-06 2.27374e-13 0 4 2.50214 -3.96553 -1.37859 -8 0 1.13687e-13 13.2447 10.6805 -26.5709 2.27374e-13 -45 -1 -6.5854 -16.7498 -0.874181 -2.27374e-13 -41 -2 4.5027 4.15956 -26.1197 2.27374e-13 -7.5 12.5 -0.00175651 0.000178413 0.00400495 0 0 4 -1.00951 0.671245 46.602 
-569.173 91.1968 1172.42 2.42908 5.46003 -115.82 -2.27374e-13 8 0 10.3756 6.07872 10.2215 0 8 -1.7053e-13 2.4688 5.92493 2.54793 0 8 -1.13687e-13 1.26574 2.94888 1.32132 0 8 1.13687e-13 1.26506 2.9459 1.31429 0 17 1.13687e-13 -2.75689 3.60177 9.0097 0 10.8 0 -7.32902 7.65141 21.481 5 17 0 1.81908 -4.00934 2.05067 6.45 0 -1.13687e-13 -1.21627 -1.18287 -3.31948 6.45 -8.52651e-14 -1.13687e-13 82.1797 -48.3421 74.4103 0 -32.4 -2 -32.0392 7.10847 -1.24996 0 -25.65 2 -5.50027 25.9076 -26.2212 -0.5 -1.5 2.65 15.3195 -29.7223 34.3653 2.27374e-13 -3.8 3.7 3.5125 22.0881 1.50537 2.27374e-13 -3 2.7 -0.00140368 16.8003 -0.0224754 -2.27374e-13 -1.9 1.6 -4.86371e-06 -3.90579e-06 -3.67276e-06 0 -8.3 1.9 -7.85936 20.4046 1.76768 0 -4.5 5.68434e-14 -0.0895611 -0.240194 -0.594268 0 -3.4 -1.13687e-13 0.00710123 -0.227022 -0.311419 -0.25 -2.2 0.4 -4.86371e-06 -3.90579e-06 -3.67276e-06 2.27374e-13 -8.3 1 -23.6336 31.2722 8.45839 0 -4.65 0 1.61841 68.3929 -70.0982 0 -3.3 -2.27374e-13 -90.0001 -3.18391e-05 2.30657e-05 -0.5 -2.15 -0.8 -4.86371e-06 -3.90579e-06 -3.67276e-06 -2.27374e-13 -7.75 -0.2 -4.96514 17.9927 1.29733 0 -3.8 -5.68434e-14 -27.1436 69.6362 -43.567 1.13687e-13 -3.4 0 -82.0638 -0.0193556 -0.304591 -0.75 -1.75 -1.85 -4.86371e-06 -3.90579e-06 -3.67276e-06 0 -7.15 -1 -13.3414 19.3551 3.24751 0 -3 -5.68434e-14 -60.5119 45.8739 -6.94579 2.27374e-13 -2.35 0 -61.1598 -0.0231854 -0.0324279 -5 17 1.7053e-13 1.17097 -6.48514 3.57587 -6.45 2.84217e-14 0 -1.83244 1.0053 -4.66345 -6.45 -2.84217e-14 0 17.3962 -46.1182 48.4716 -1.13687e-13 -32.4 -2 9.8411 -52.596 -2.85046 0 -25.65 2 -37.585 13.2331 35.0582 0.5 -1.5 2.65 -30.6701 74.8076 -149.969 1.13687e-13 -3.8 3.7 -1.48129 12.5683 -1.05617 2.27374e-13 -3 2.7 -0.0152554 15.6823 -0.103 -1.13687e-13 -1.9 1.6 2.64546e-07 3.97717e-06 -3.95282e-06 0 -8.3 1.9 2.13581 -2.33284 0.033837 1.13687e-13 -4.5 0 0.092326 -0.0292499 -8.89921e-05 -2.27374e-13 -3.4 0 -2.686e-05 -0.289831 -6.76969e-05 0.25 -2.2 0.4 2.64546e-07 3.97717e-06 -3.95282e-06 -1.13687e-13 -8.3 1 2.31686 12.1446 -0.411724 2.27374e-13 -4.65 1.13687e-13 52.4156 0.0154478 -0.0162994 -5.68434e-14 -3.3 -2.27374e-13 36.1605 -0.00550159 -0.0100635 0.5 -2.15 -0.8 2.64546e-07 3.97717e-06 -3.95282e-06 0 -7.75 -0.2 20.3633 14.6401 -3.33592 -1.13687e-13 -3.8 -1.13687e-13 48.8137 0.0297504 -0.012558 -5.68434e-14 -3.4 1.13687e-13 33.7005 -0.000349943 -0.00147199 0.75 -1.75 -1.85 2.64546e-07 3.97717e-06 -3.95282e-06 0 -7.15 -1 35.2751 10.3373 -4.98844 0 -3 3.41061e-13 28.8393 0.00828019 -0.0337906 5.68434e-14 -2.35 0 21.3921 0.00139558 -0.0295204 8 0 -1.13687e-13 18.3511 -26.7711 14.645 0 -45 -1 -4.23984 2.09531 -6.98222 0 -41 -2 -4.27112 15.2719 -27.5274 -2.27374e-13 -7.5 12.5 1.03363e-06 3.215e-06 -5.04759e-06 2.27374e-13 -1.42109e-14 4 2.5078 -3.96525 -1.37875 -8 0 -5.68434e-14 13.2489 10.6812 -26.5756 0 -45 -1 -6.58629 -16.7555 -0.873943 0 -41 -2 4.50139 4.16377 -26.1111 1.13687e-13 -7.5 12.5 -0.00175651 0.000178413 0.00400495 -1.13687e-13 0 4 -0.997965 0.666339 46.602 
-569.169 91.1967 1172.41 2.42859 5.46045 -115.821 0 8 0 10.3648 6.07474 10.2215 -2.27374e-13 8 -1.13687e-13 2.46792 5.92483 2.54865 -2.27374e-13 8 0 1.2652 2.94868 1.32128 0 8 0 1.26461 2.94566 1.31417 0 17 1.13687e-13 -2.75021 3.61371 8.99985 2.27374e-13 10.8 0 -7.31603 7.68189 21.4586 5 17 1.13687e-13 1.79718 -4.00537 2.04437 6.45 -5.68434e-14 -1.7053e-13 -1.21843 -1.18258 -3.32404 6.45 -5.68434e-14 1.13687e-13 82.0947 -48.2532 74.4701 0 -32.4 -2 -32.1248 7.10947 -1.16499 2.27374e-13 -25.65 2 -5.92291 26.0835 -25.4253 -0.5 -1.5 2.65 15.9524 -30.2577 34.2789 0 -3.8 3.7 3.77368 23.4528 1.50718 2.27374e-13 -3 2.7 0.000283827 17.7612 -0.0292172 0 -1.9 1.6 -4.86371e-06 -3.90579e-06 -3.67276e-06 -2.27374e-13 -8.3 1.9 -8.96892 21.8622 2.13357 0 -4.5 2.27374e-13 -0.0895485 -0.2393 -0.594224 0 -3.4 -5.68434e-14 0.00711361 -0.226167 -0.310547 -0.25 -2.2 0.4 -4.86371e-06 -3.90579e-06 -3.67276e-06 0 -8.3 1 -25.1665 31.8736 9.17825 0 -4.65 0 0.900042 68.3999 -69.3468 0 -3.3 0 -90.0001 -4.40556e-05 4.27135e-05 -0.5 -2.15 -0.8 -4.86371e-06 -3.90579e-06 -3.67276e-06 0 -7.75 -0.2 -5.50673 18.9921 1.48887 0 -3.8 0 -15.8704 71.3637 -55.5107 0 -3.4 -2.27374e-13 -85.2466 0.00277974 -0.157478 -0.75 -1.75 -1.85 -4.86371e-06 -3.90579e-06 -3.67276e-06 0 -7.15 -1 -15.1137 19.3577 3.58964 -2.27374e-13 -3 5.68434e-14 -59.8197 48.9896 -8.43147 1.13687e-13 -2.35 2.27374e-13 -62.966 -0.00825344 -0.0147009 -5 17 5.68434e-14 1.15761 -6.46038 3.55294 -6.45 0 -1.13687e-13 -1.83055 1.00326 -4.65675 -6.45 2.84217e-14 -1.7053e-13 17.3671 -46.1163 48.4447 -2.27374e-13 -32.4 -2 10.0371 -52.5745 -2.97205 -1.13687e-13 -25.65 2 -37.4029 13.2931 34.6666 0.5 -1.5 2.65 -42.9965 77.9771 -137.804 0 -3.8 3.7 -2.31418 19.326 -1.2833 0 -3 2.7 -0.0303363 17.4491 -0.12601 0 -1.9 1.6 2.64546e-07 3.97717e-06 -3.95282e-06 0 -8.3 1.9 1.93018 -2.30617 0.0317987 2.27374e-13 -4.5 0 0.0924158 -0.029281 -8.89921e-05 0 -3.4 0 -2.68611e-05 -0.290805 -6.76969e-05 0.25 -2.2 0.4 2.64546e-07 3.97717e-06 -3.95282e-06 0 -8.3 1 2.3472 12.0136 -0.41194 1.13687e-13 -4.65 2.27374e-13 51.5311 0.0155308 -0.0147478 0 -3.3 -1.13687e-13 35.5291 -0.00432849 -0.00909212 0.5 -2.15 -0.8 2.64546e-07 3.97717e-06 -3.95282e-06 1.13687e-13 -7.75 -0.2 19.978 14.584 -3.26092 0 -3.8 -1.13687e-13 48.2103 0.0293674 -0.0114036 -1.7053e-13 -3.4 0 33.296 0.00106137 -0.00149954 0.75 -1.75 -1.85 2.64546e-07 3.97717e-06 -3.95282e-06 0 -7.15 -1 34.9107 10.3257 -4.91773 -1.13687e-13 -3 2.27374e-13 28.1657 0.00839603 -0.0341898 0 -2.35 -2.27374e-13 20.9861 0.00172429 -0.029678 8 0 5.68434e-14 18.3465 -26.7765 14.6221 0 -45 -1 -4.22348 2.09814 -6.97648 4.54747e-13 -41 -2 -4.28478 15.2697 -27.509 2.27374e-13 -7.5 12.5 1.03363e-06 3.215e-06 -5.04759e-06 0 -1.42109e-14 4 2.51325 -3.96492 -1.37889 -8 0 1.13687e-13 13.2525 10.6811 -26.5787 0 -45 -1 -6.58708 -16.7591 -0.873671 0 -41 -2 4.49964 4.16706 -26.1044 2.27374e-13 -7.5 12.5 -0.00175651 0.000178413 0.00400495 -2.27374e-13 -5.55112e-17 4 -0.985192 0.661012 46.6019 
